<svg xmlns="http://www.w3.org/2000/svg" width="170" height="22"><path fill="#1A1919" fill-rule="evenodd" d="M39.71 0c.086 0 .114.11.114.25 0 .193-.142.526-.227 1.301-.029.277-.086 1.496-.143 1.829-.028.139-.085.305-.199.305-.171 0-.228-.139-.228-.36 0-.195-.029-.665-.171-.998-.2-.443-.484-.776-2.022-.942-.485-.055-3.589-.083-3.902-.083-.114 0-.171.083-.171.277v7.647c0 .194.028.277.171.277h.725c1.163-.003 3.306-.013 3.804-.055.683-.056 1.082-.111 1.338-.389.2-.22.313-.36.427-.36.085 0 .143.056.143.222 0 .167-.143.637-.228 1.552-.057.554-.114 1.58-.114 1.773 0 .222 0 .526-.2.526-.142 0-.199-.11-.199-.249 0-.277 0-.555-.114-.914-.114-.388-.37-.86-1.48-.97-.77-.083-3.59-.139-4.074-.139-.142 0-.199.083-.199.194v2.438c0 .943-.028 4.156 0 4.738.083 1.855.488 2.25 3.064 2.271l.24.001c.74 0 1.993 0 2.734-.305.74-.304 1.082-.859 1.282-1.995.057-.305.113-.415.256-.415.17 0 .17.222.17.415 0 .222-.227 2.106-.37 2.688-.199.72-.427.72-1.537.72-4.17 0-6.091-.156-6.957-.165h-.078c-.057 0-.541.027-1.14.027a40.7 40.7 0 01-1.651.055c-.314 0-.456-.055-.456-.221 0-.083.057-.166.228-.166.256 0 .598-.056.854-.112.57-.11.712-.72.826-1.524.121-.989.14-2.718.142-4.849V5.964c-.002-2.362-.011-2.993-.056-3.692-.057-.942-.285-1.386-1.225-1.58C28.86.638 28.375.61 28.12.61c-.114 0-.228-.055-.228-.166 0-.166.142-.222.456-.222 1.223 0 2.913.076 3.189.083h.989C34.218.303 37.59.298 38.087.277c.541-.028.997-.083 1.224-.138.143-.028.257-.139.4-.139zM.452.664c1.271 0 3.052.082 3.193.082.678 0 1.78-.082 3.08-.082 4.635 0 5.652 2.712 5.652 4.068 0 2.225-1.328 3.553-2.656 4.883 2.09.623 4.888 2.549 4.888 5.722 0 2.903-2.374 5.913-7.206 5.913-.65 0-3.532-.162-3.758-.162-.141 0-1.922.081-2.77.081-.31 0-.451-.054-.451-.217 0-.081.056-.163.226-.163.254 0 .593-.054.848-.108.565-.109.706-.706.819-1.492.127-1.025.14-2.864.141-5.12V6.997c0-2.905-.007-3.574-.056-4.325-.057-.922-.283-1.356-1.216-1.546-.225-.054-.706-.081-.96-.081C.113 1.044 0 .99 0 .88 0 .718.141.664.452.664zM149.978 0c.224 0 .701.602.982.875.422.465 4.606 4.868 8.93 9.381 2.78 2.899 5.842 6.235 6.74 7.138L166.321 3.5c-.028-1.778-.225-2.38-1.095-2.598a7.69 7.69 0 00-1.376-.137c-.197 0-.225-.082-.225-.192 0-.164.225-.191.562-.191 1.263 0 2.612.082 2.92.082.31 0 1.236-.082 2.387-.082.31 0 .506.027.506.191 0 .11-.112.192-.309.192-.14 0-.337 0-.674.082-.927.191-1.039.793-1.039 2.434l-.056 16.027c0 1.804-.056 1.941-.253 1.941-.225 0-.561-.3-2.05-1.75-.308-.273-4.352-4.294-7.33-7.412a578.887 578.887 0 01-7.33-7.849l.366 13.1c.057 2.243.337 2.954 1.095 3.173a6.339 6.339 0 001.405.164c.14 0 .224.054.224.164 0 .164-.168.219-.505.219-1.6 0-2.724-.082-2.977-.082-.253 0-1.432.082-2.696.082-.28 0-.45-.028-.45-.219 0-.11.085-.164.225-.164.225 0 .73-.028 1.152-.164.702-.192.842-.985.842-3.473l.028-15.671c0-1.067.085-1.368.31-1.368zm-46.159 0c.196 0 .28.22.335.745l1.871 16.945c.112.993.307 2.539 1.507 2.925.81.249 1.536.249 1.815.249.14 0 .223.027.223.138 0 .165-.25.248-.585.248-.615 0-3.63-.083-4.663-.166-.642-.055-.782-.137-.782-.276 0-.11.056-.165.196-.193.139-.028.167-.497.111-.993l-1.34-14.24h-.084l-6.84 14.35c-.586 1.215-.67 1.463-.921 1.463-.196 0-.335-.276-.866-1.27-.726-1.352-3.127-6.126-3.266-6.402-.252-.497-3.378-7.12-3.685-7.865h-.112l-1.117 12.804c-.028.442-.028.94-.028 1.408 0 .414.307.773.726.855.475.11.893.139 1.061.139.112 0 .223.055.223.138 0 .193-.167.248-.502.248-1.033 0-2.373-.083-2.597-.083-.25 0-1.591.083-2.345.083-.279 0-.474-.055-.474-.248 0-.083.14-.138.279-.138.223 0 .418 0 .837-.084.921-.165 1.005-1.241 1.117-2.29L85.923.497c.056-.304.14-.497.307-.497.168 0 .28.11.42.414l8.542 17.358 8.209-17.33c.112-.249.223-.442.418-.442zm29.524 0c.086 0 .114.11.114.25 0 .193-.142.526-.227 1.301-.029.277-.086 1.496-.143 1.829-.028.139-.085.305-.2.305-.17 0-.227-.139-.227-.36 0-.195-.029-.665-.171-.998-.2-.443-.484-.776-2.022-.942-.485-.055-3.589-.083-3.902-.083-.114 0-.171.083-.171.277v7.647c0 .194.028.277.17.277h.726c1.162-.003 3.306-.013 3.804-.055.683-.056 1.082-.111 1.338-.389.2-.22.313-.36.427-.36.086 0 .143.056.143.222 0 .167-.143.637-.228 1.552-.058.554-.114 1.58-.114 1.773 0 .222 0 .526-.2.526-.142 0-.2-.11-.2-.249 0-.277 0-.555-.113-.914-.114-.388-.37-.86-1.481-.97-.769-.083-3.589-.139-4.073-.139-.142 0-.2.083-.2.194v2.732c-.004 1.188-.025 3.913 0 4.444.084 1.855.489 2.25 3.064 2.271l.24.001c.741 0 1.995 0 2.735-.305.74-.304 1.082-.859 1.282-1.995.057-.305.114-.415.256-.415.17 0 .17.222.17.415 0 .222-.227 2.106-.37 2.688-.199.72-.427.72-1.537.72-4.171 0-6.091-.156-6.957-.165h-.078c-.057 0-.541.027-1.14.027-.57.027-1.225.055-1.652.055-.312 0-.455-.055-.455-.221 0-.083.057-.166.227-.166.257 0 .599-.056.855-.112.57-.11.712-.72.826-1.524.135-1.105.142-3.136.142-5.616V7.297c0-3.486-.004-4.209-.056-5.025-.057-.942-.285-1.386-1.225-1.58-.228-.055-.712-.083-.968-.083-.115 0-.229-.055-.229-.166 0-.166.143-.222.457-.222 1.223 0 2.913.076 3.188.083h.99c1.693-.001 5.066-.006 5.562-.027.54-.028.996-.083 1.225-.138.142-.028.256-.139.398-.139zM56.216.746c.193 0 1.241-.082 2.318-.082.303 0 .358.082.358.19 0 .11-.166.137-.414.246-.22.109-.358.272-.358.49 0 .327.137.654.358 1.062.441.79 4.58 7.815 5.077 8.605.525-1.144 4.029-7.108 4.58-8.006.36-.572.47-1.035.47-1.389 0-.38-.11-.68-.442-.762-.248-.082-.414-.136-.414-.272 0-.11.166-.164.442-.164.717 0 1.6.082 1.82.082.166 0 2.153-.082 2.677-.082.193 0 .359.055.359.164 0 .136-.138.217-.359.217-.303 0-.827.11-1.269.381-.552.327-.855.654-1.463 1.39-.91 1.089-4.773 7.488-5.27 8.658-.413.981-.413 1.825-.413 2.723v2.342c0 .436 0 1.58.082 2.723.056.79.304 1.389 1.132 1.498.386.054.993.109 1.241.109.166 0 .22.082.22.163 0 .136-.137.218-.44.218-1.452 0-3.106-.075-3.367-.081h-.027c-.138 0-1.877.081-2.704.081-.304 0-.442-.055-.442-.218 0-.081.055-.163.22-.163.25 0 .58-.055.829-.11.551-.108.8-.707.855-1.497.066-.915.08-1.83.082-2.382v-2.683c0-1.47-.275-2.07-.634-2.858-.193-.436-3.89-6.427-4.856-7.843-.69-1.008-1.38-1.689-1.876-2.015-.415-.272-.939-.436-1.187-.436-.138 0-.276-.054-.276-.19 0-.11.11-.19.359-.19.524 0 2.594.08 2.732.08zM4.937 9.96h-.123c-.11 0-.166.053-.166.187v3.172c.002 1.835.007 3.814.028 4.118.083 1.309.083 1.683.94 2.083.748.348 1.938.4 2.436.4 1.494 0 3.901-.773 3.901-3.791 0-1.603-.553-3.926-2.684-5.341-.94-.615-1.633-.695-2.297-.775-.359-.053-1.743-.053-2.158-.053zm1.346-8.633c-.3 0-.872.027-1.308.133-.245.054-.327.134-.327.294v7.142c0 .186.055.24.191.293.164.027.654.107 1.662.107 1.526 0 1.907-.053 2.479-.693.572-.64.98-1.599.98-2.692 0-2.212-1.007-4.584-3.677-4.584z"/></svg>