<svg xmlns="http://www.w3.org/2000/svg" width="170" height="22" viewBox="0 0 170 22">
    <path fill="#FFF" fill-rule="evenodd" d="M151.325 17.34c.057 2.242.337 2.953 1.095 3.172a6.339 6.339 0 0 0 1.405.164c.14 0 .224.054.224.164 0 .164-.168.219-.505.219-1.6 0-2.724-.082-2.977-.082-.253 0-1.432.082-2.696.082-.28 0-.45-.028-.45-.219 0-.11.085-.164.225-.164.225 0 .73-.028 1.152-.164.702-.192.842-.985.842-3.473l.028-15.671c0-1.067.085-1.368.31-1.368.224 0 .701.602.982.875.422.465 4.606 4.868 8.93 9.381 2.78 2.899 5.842 6.235 6.74 7.138L166.321 3.5c-.028-1.778-.225-2.38-1.095-2.598a7.69 7.69 0 0 0-1.376-.137c-.197 0-.225-.082-.225-.192 0-.164.225-.191.562-.191 1.263 0 2.612.082 2.92.082.31 0 1.236-.082 2.387-.082.31 0 .506.027.506.191 0 .11-.112.192-.309.192-.14 0-.337 0-.674.082-.927.191-1.039.793-1.039 2.434l-.056 16.027c0 1.804-.056 1.941-.253 1.941-.225 0-.561-.3-2.05-1.75-.308-.273-4.352-4.294-7.33-7.412a578.867 578.867 0 0 1-7.33-7.849l.366 13.1zm-27.324-9.084c0-4.322 0-5.098-.056-5.984-.057-.942-.285-1.386-1.225-1.58-.228-.055-.712-.083-.968-.083-.115 0-.229-.055-.229-.166 0-.166.143-.222.457-.222 1.281 0 3.075.084 3.218.084.2 0 5.867 0 6.522-.028.54-.028.996-.083 1.225-.138.142-.028.256-.139.398-.139.086 0 .114.11.114.25 0 .193-.142.526-.227 1.301-.03.277-.086 1.496-.143 1.829-.028.139-.085.305-.2.305-.17 0-.227-.139-.227-.36 0-.195-.029-.665-.171-.998-.2-.443-.484-.776-2.022-.942-.485-.055-3.589-.083-3.902-.083-.114 0-.171.083-.171.277v7.647c0 .194.028.277.17.277.37 0 3.874 0 4.53-.055.683-.056 1.082-.111 1.338-.389.2-.22.313-.36.427-.36.086 0 .143.056.143.222 0 .167-.143.637-.228 1.552a30.26 30.26 0 0 0-.114 1.773c0 .222 0 .526-.2.526-.142 0-.2-.11-.2-.249 0-.277 0-.555-.113-.914-.114-.388-.37-.86-1.481-.97-.769-.083-3.589-.139-4.073-.139-.142 0-.2.083-.2.194v2.438c0 .943-.028 4.156 0 4.738.087 1.912.513 2.272 3.305 2.272.74 0 1.994 0 2.734-.305.74-.304 1.082-.859 1.282-1.995.057-.305.114-.415.256-.415.17 0 .17.222.17.415 0 .222-.227 2.106-.37 2.688-.199.72-.427.72-1.537.72-4.301 0-6.21-.166-7.035-.166-.057 0-.541.028-1.14.028-.57.027-1.225.055-1.652.055-.312 0-.455-.055-.455-.221 0-.083.057-.166.227-.166.257 0 .598-.056.855-.112.57-.11.712-.72.826-1.524.142-1.163.142-3.352.142-6.012V8.256zm-17.976 9.434c.112.993.307 2.539 1.507 2.925.81.249 1.536.249 1.815.249.14 0 .223.027.223.138 0 .165-.25.248-.585.248-.615 0-3.63-.083-4.663-.166-.642-.055-.782-.137-.782-.276 0-.11.056-.165.196-.193.14-.028.167-.497.111-.993l-1.34-14.24h-.084l-6.84 14.35c-.586 1.215-.67 1.463-.921 1.463-.196 0-.335-.276-.866-1.27-.726-1.352-3.127-6.126-3.266-6.402-.252-.497-3.378-7.12-3.685-7.865h-.112l-1.117 12.804c-.028.442-.028.94-.028 1.408 0 .414.307.773.726.855.475.11.893.139 1.061.139.112 0 .223.055.223.138 0 .193-.167.248-.502.248-1.033 0-2.373-.083-2.597-.083-.25 0-1.591.083-2.345.083-.28 0-.474-.055-.474-.248 0-.083.14-.138.279-.138.223 0 .418 0 .837-.084.921-.165 1.005-1.241 1.117-2.29L85.923.497c.056-.304.14-.497.307-.497.168 0 .28.11.42.414l8.542 17.358 8.209-17.33c.112-.249.223-.442.418-.442.196 0 .28.22.335.745l1.871 16.945zm-44.07-3.493c0-1.47-.276-2.07-.635-2.858-.193-.436-3.89-6.427-4.856-7.843-.69-1.008-1.38-1.689-1.876-2.015-.415-.272-.939-.436-1.187-.436-.138 0-.276-.054-.276-.19 0-.11.11-.19.359-.19.524 0 2.594.08 2.732.08.193 0 1.241-.08 2.318-.08.303 0 .358.08.358.19 0 .109-.166.136-.414.245-.22.109-.358.272-.358.49 0 .327.137.654.358 1.062.441.79 4.58 7.815 5.077 8.605.525-1.144 4.029-7.108 4.58-8.006.36-.572.47-1.035.47-1.389 0-.38-.11-.68-.442-.762-.248-.082-.414-.136-.414-.272 0-.11.166-.164.442-.164.717 0 1.6.082 1.82.082.166 0 2.153-.082 2.677-.082.193 0 .359.055.359.164 0 .136-.138.217-.359.217-.303 0-.827.11-1.269.381-.552.327-.855.654-1.463 1.39-.91 1.089-4.773 7.488-5.27 8.658-.413.981-.413 1.825-.413 2.723v2.342c0 .436 0 1.58.082 2.723.056.79.304 1.389 1.132 1.498.386.054.993.109 1.241.109.166 0 .22.082.22.163 0 .136-.137.218-.44.218-1.518 0-3.257-.082-3.394-.082-.138 0-1.877.082-2.704.082-.304 0-.442-.055-.442-.218 0-.081.055-.163.22-.163.25 0 .58-.055.829-.11.551-.108.8-.707.855-1.497.083-1.144.083-2.287.083-2.723v-2.342zM30.369 8.256c0-4.322 0-5.098-.057-5.984-.057-.942-.285-1.386-1.225-1.58C28.86.638 28.375.61 28.12.61c-.114 0-.228-.055-.228-.166 0-.166.142-.222.456-.222 1.281 0 3.076.084 3.218.084.2 0 5.867 0 6.522-.028.541-.028.997-.083 1.224-.138.143-.028.257-.139.4-.139.085 0 .113.11.113.25 0 .193-.142.526-.227 1.301-.029.277-.086 1.496-.143 1.829-.028.139-.085.305-.199.305-.171 0-.228-.139-.228-.36 0-.195-.029-.665-.171-.998-.2-.443-.484-.776-2.022-.942-.485-.055-3.589-.083-3.902-.083-.114 0-.171.083-.171.277v7.647c0 .194.028.277.171.277.37 0 3.873 0 4.529-.055.683-.056 1.082-.111 1.338-.389.2-.22.313-.36.427-.36.085 0 .143.056.143.222 0 .167-.143.637-.228 1.552-.057.554-.114 1.58-.114 1.773 0 .222 0 .526-.2.526-.142 0-.199-.11-.199-.249 0-.277 0-.555-.114-.914-.114-.388-.37-.86-1.48-.97-.77-.083-3.59-.139-4.074-.139-.142 0-.199.083-.199.194v2.438c0 .943-.028 4.156 0 4.738.086 1.912.513 2.272 3.304 2.272.74 0 1.993 0 2.734-.305.74-.304 1.082-.859 1.282-1.995.057-.305.113-.415.256-.415.17 0 .17.222.17.415 0 .222-.227 2.106-.37 2.688-.199.72-.427.72-1.537.72-4.3 0-6.21-.166-7.035-.166-.057 0-.541.028-1.14.028-.569.027-1.224.055-1.651.055-.314 0-.456-.055-.456-.221 0-.083.057-.166.228-.166.256 0 .598-.056.854-.112.57-.11.712-.72.826-1.524.143-1.163.143-3.352.143-6.012V8.256zm-27.91 5.047V8.53c0-4.231 0-4.991-.057-5.859-.057-.922-.283-1.356-1.216-1.546-.225-.054-.706-.081-.96-.081C.113 1.044 0 .99 0 .88 0 .718.141.664.452.664c1.271 0 3.052.082 3.193.082.678 0 1.78-.082 3.08-.082 4.635 0 5.652 2.712 5.652 4.068 0 2.225-1.328 3.553-2.656 4.883 2.09.623 4.888 2.549 4.888 5.722 0 2.903-2.374 5.913-7.206 5.913-.65 0-3.532-.162-3.758-.162-.141 0-1.922.081-2.77.081-.31 0-.451-.054-.451-.217 0-.081.056-.163.226-.163.254 0 .593-.054.848-.108.565-.109.706-.706.819-1.492.141-1.14.141-3.282.141-5.886zm2.19-3.155v1.522c0 2.056 0 5.368.027 5.768.083 1.309.083 1.683.94 2.083.748.348 1.938.4 2.436.4 1.494 0 3.901-.773 3.901-3.791 0-1.603-.553-3.926-2.684-5.341-.94-.615-1.633-.695-2.297-.775-.359-.053-1.743-.053-2.158-.053-.11 0-.166.053-.166.187zm0-8.393v7.142c0 .186.054.24.19.293.164.027.654.107 1.662.107 1.526 0 1.907-.053 2.479-.693.572-.64.98-1.599.98-2.692 0-2.212-1.007-4.584-3.677-4.584-.3 0-.872.027-1.308.133-.245.054-.327.134-.327.294z"></path>
</svg>
